# xmcd CD database file
#
# Track frame offsets:
#	150
#	16590
#	44218
#	68317
#	99044
#	119771
#	146560
#	165214
#	185749
#	208849
#	236296
#	264872
#	299972
#
# Disc length: 4479 seconds
#
# Revision: 2
# Processed by: cddbd v1.5.2PL0 Copyright (c) Steve Scherf et al.
# Submitted via: CDex 1.70beta2
#
DISCID=b6117d0d
DTITLE=Keef Harltey Band - Not Foolish Not Wise
DYEAR=1999
DGENRE=Blues
TTITLE0=Sinning For You
TTITLE1=Spanish Fly
TTITLE2=Me And My Woman
TTITLE3=Too Much Thinking
TTITLE4=Not Foolish Not Wise
TTITLE5=Don't You Belong
TTITLE6=Marin County
TTITLE7=Always Thinking Of You
TTITLE8=Don't Sign It
TTITLE9=Colours
TTITLE10=Roundabout
TTITLE11=You Can't Take It With You
TTITLE12=Just A Cry
EXTD=YEAR: 1999
EXTT0=
EXTT1=
EXTT2=
EXTT3=
EXTT4=
EXTT5=
EXTT6=
EXTT7=
EXTT8=
EXTT9=
EXTT10=
EXTT11=
EXTT12=
PLAYORDER=
